<svg width="64" height="64" viewBox="0 0 64 64" fill="none" xmlns="http://www.w3.org/2000/svg">
<rect width="64" height="64" fill="#1F2D3B"/>
<path d="M15.8125 48.8438C17.25 47.3125 18.3229 45.3542 19.0312 42.9688C19.5417 41.2292 19.7969 39.5104 19.7969 37.8125V25.6094C19.7969 24.0885 19.7188 23.1354 19.5625 22.75C19.4167 22.3646 19.2552 22.1302 19.0781 22.0469C18.9115 21.9531 18.6719 21.9062 18.3594 21.9062C17.526 21.9062 16.9219 21.9479 16.5469 22.0312C16.5573 22.0417 16.5625 22.0573 16.5625 22.0781L16.375 22.0625L16.6562 20.0938H26.3594L26.125 21.9062C24.9896 21.9062 24.2656 22.0365 23.9531 22.2969C23.6406 22.5469 23.4323 22.8542 23.3281 23.2188C23.224 23.5729 23.1719 24.0417 23.1719 24.625V38.8125C23.1719 40.3125 23.0677 41.4531 22.8594 42.2344C22.651 43.0052 22.4062 43.6771 22.125 44.25C21.8438 44.8229 21.474 45.4167 21.0156 46.0312C20.1198 47.2083 18.776 48.5417 16.9844 50.0312L15.8125 48.875V48.8438ZM46.3438 20.1562C46.3646 20.5729 46.375 21.3073 46.375 22.3594C46.375 23.401 46.2083 24.8177 45.875 26.6094H44.1562C44.0938 23.974 43.0521 22.3854 41.0312 21.8438C40.3958 21.6667 39.6458 21.5781 38.7812 21.5781C37.9167 21.5781 37.1823 21.6927 36.5781 21.9219C35.9844 22.151 35.5208 22.4479 35.1875 22.8125C34.5938 23.4479 34.3229 24.2812 34.375 25.3125C34.4583 26.8958 35.6042 28.2604 37.8125 29.4062C38.4688 29.75 39.125 30.0677 39.7812 30.3594C40.4479 30.651 41.0677 30.9427 41.6406 31.2344C42.224 31.5156 42.7865 31.8281 43.3281 32.1719C43.8698 32.5052 44.375 32.8646 44.8438 33.25C45.3229 33.6354 45.7448 34.0573 46.1094 34.5156C46.8802 35.4948 47.3073 36.5521 47.3906 37.6875C47.3906 39.8021 46.5521 41.4479 44.875 42.625C43.3229 43.7083 41.276 44.25 38.7344 44.25C37.9219 44.25 36.7865 44.1146 35.3281 43.8438C33.8698 43.5729 32.8542 43.4375 32.2812 43.4375C31.7188 43.4375 31.2292 43.4688 30.8125 43.5312L30.6875 43.5C30.6771 43.2708 30.6719 43.0417 30.6719 42.8125V42.1562C30.6719 39.9583 30.7917 38.1771 31.0312 36.8125H32.7969C32.9219 39.7396 33.9792 41.5312 35.9688 42.1875C36.6771 42.4271 37.474 42.5469 38.3594 42.5469C39.2552 42.5469 40.026 42.4479 40.6719 42.25C41.3177 42.0417 41.8698 41.7604 42.3281 41.4062C43.2865 40.6667 43.7656 39.7188 43.7656 38.5625C43.6615 36.9167 42.4062 35.5208 40 34.375C39.3021 34.0417 38.7396 33.7812 38.3125 33.5938L37.5156 33.25C37.401 33.1979 37.1198 33.0781 36.6719 32.8906C36.2344 32.7031 35.6458 32.3802 34.9062 31.9219C34.1771 31.4635 33.526 30.9375 32.9531 30.3438C31.7031 29.0417 31.0573 27.5573 31.0156 25.8906C30.974 24.0885 31.7188 22.625 33.25 21.5C34.75 20.4062 36.7188 19.8594 39.1562 19.8594C39.5312 19.8594 40.1042 19.9062 40.875 20L42.8438 20.25C43.4062 20.3229 43.9688 20.3594 44.5312 20.3594C45.1042 20.3594 45.7083 20.2917 46.3438 20.1562Z" fill="#DF691A"/>
</svg>
